<svg xmlns="http://www.w3.org/2000/svg" xmlns:xlink="http://www.w3.org/1999/xlink" version="1.1" width="1050pt" height="334pt" viewBox="0 0 1050 334">
<defs>
<clipPath id="clip_1">
<path transform="matrix(1,0,0,-1,0,334)" d="M0 334H1050V0H0Z"/>
</clipPath>
</defs>
<g id="layer_1" data-name="Calque 1">
<g clip-path="url(#clip_1)">
<path transform="matrix(1,0,0,-1,757.418,285.16603)" d="M0 0C-6.207 3.899-10.99 8.795-14.217 14.547-17.474 20.396-19.535 26.595-20.348 32.962-21.187 39.53-21.602 49.619-21.602 62.921V148.867C-21.602 167.313-20.727 180.843-18.986 189.071-17.326 196.969-12.436 204.35-4.448 211.003 3.521 217.661 14.029 221.034 26.796 221.034 39.41 221.034 49.994 218.089 58.24 212.275 66.446 206.514 71.868 199.598 74.336 191.717 76.772 183.94 78.048 173.815 78.169 159.192 74.885 158.559 42.601 152.321 37.942 151.415V165.065C37.942 176.564 37.487 183.65 36.546 186.715 35.381 190.508 32.409 192.596 28.179 192.596 24.476 192.596 21.687 190.803 20.325 187.527 19.607 185.814 18.639 181.923 18.639 168.05V46.393C18.639 37.259 19.165 31.333 20.271 28.294 21.593 24.613 24.507 22.587 28.482 22.587 32.762 22.587 35.831 24.742 37.371 28.821 38.665 32.274 39.29 38.566 39.29 48.053V77.142H30.24V102.545C33.462 103.246 73.31 111.992 78.191 113.067V-20.285C71.966-13.32 47.505 14.042 47.505 14.042L45.961 11.004C43.092 5.35 39.468 1.079 35.185-1.691 30.914-4.463 25.796-5.868 19.955-5.868 12.896-5.868 6.181-3.896 0 0M-446.695 138.653C-446.695 158.295-447.097 172.035-447.905 179.897-448.73 187.75-451.265 195.024-455.526 201.699-459.792 208.375-465.437 213.386-472.438 216.724-479.453 220.065-487.364 221.739-496.163 221.739-505.431 221.739-513.566 219.963-520.54 216.438-527.523 212.895-533.048 207.83-537.162 201.226-541.249 194.622-543.681 187.344-544.458 179.371-545.243 171.401-545.626 157.827-545.626 138.653V78.789C-545.626 59.142-545.221 45.402-544.413 37.545-543.596 29.683-541.057 22.418-536.792 15.738-532.526 9.063-526.885 4.047-519.88 .714-512.874-2.624-504.967-4.298-496.163-4.298-486.877-4.298-478.756-2.535-471.777 1.004-464.812 4.547-459.279 9.611-455.174 16.211-451.078 22.814-448.641 30.102-447.855 38.075-447.088 46.045-446.695 59.614-446.695 78.789ZM-486.347 50.73C-486.347 38.928-486.949 31.44-488.127 28.304-489.327 25.166-492.049 23.601-496.311 23.601-500.474 23.601-503.12 24.961-504.267 27.687-505.409 30.405-505.976 37.598-505.976 49.244V171.557C-505.976 181.887-505.092 188.112-503.365 190.223-501.647 192.315-499.131 193.391-495.855 193.391-492 193.391-489.452 192.074-488.203 189.468-486.976 186.872-486.347 180.906-486.347 171.557ZM-562.672 257.164-605.107 243.104V116.579L-650.832 236.982-689.055 214.595V-.393H-645.401V106.708L-562.672-27.514ZM-431.743 59.387C-431.649 44.108-430.4 32.439-427.896 23.854-425.437 15.367-420.128 8.272-412.104 2.753-404.028-2.812-394.113-5.636-382.614-5.636-372.155-5.636-362.851-3.182-354.976 1.655-347.211 6.435-341.915 12.404-339.242 19.388-336.466 26.607-335.056 38.138-335.056 53.671-335.056 75.045-337.6 90.667-342.602 100.1-347.64 109.591-360.165 122.089-379.825 137.243-387.241 142.915-391.699 147.734-393.435 151.955-395.188 156.073-396.036 161.892-396.036 169.737-396.036 175.984-395.269 180.584-393.676 183.806-391.36 188.514-387.781 189.504-385.189 189.504-381.753 189.504-379.031 187.884-377.523 184.926-376.706 183.337-375.622 179.955-375.622 169.041V155.877L-338.782 165.712C-338.987 180.767-340.268 191.726-342.606 198.21-345.069 205.006-350.228 210.749-357.929 215.273-365.765 219.896-375.421 222.252-386.63 222.252-396.839 222.252-405.652 220.115-412.805 215.898-419.887 211.73-425.076 205.889-428.227 198.518-431.461 191.003-433.108 178.714-433.108 161.981-433.108 150.362-431.943 140.768-429.65 133.473-427.375 126.19-424.492 120.452-421.087 116.396-417.553 112.206-410.155 105.28-399.098 95.838-387.821 86.298-380.58 79.315-377.554 75.036-374.431 70.493-372.914 61.573-372.914 47.776-372.914 41.337-373.708 36.545-375.354 33.132-377.732 28.16-381.548 27.116-384.323 27.116-389.343 27.116-391.744 29.843-392.864 32.127-393.729 33.89-394.881 37.598-394.881 49.392V72.858ZM-300.515-.393H-260.449V186.577H-234.545V219.378H-326.422V186.577H-300.515ZM-121.527-.5H-160.969L-167.376 41.226H-192.61L-199.397-.505H-240.333L-196.965 220.931H-160.576ZM-179.058 165.667-189.651 73.336H-168.925ZM-102.697 220.976V-.474H-36.724V33.136H-64.875V220.976ZM94.942-.469H133.696V221.154H94.942ZM191.178 187.934H221.249V221.087H150.951V-.393H224.327V32.819H191.178V99.216H219.321V130.407H191.178Z" fill="#cd9e4c"/>
</g>
</g>
</svg>
